<?xml version="1.0" encoding="UTF-8" standalone="no"?>
<!DOCTYPE svg PUBLIC "-//W3C//DTD SVG 1.1//EN" "http://www.w3.org/Graphics/SVG/1.1/DTD/svg11.dtd">
<svg width="100%" height="100%" viewBox="0 0 321 513" version="1.1" xmlns="http://www.w3.org/2000/svg" xmlns:xlink="http://www.w3.org/1999/xlink" xml:space="preserve" xmlns:serif="http://www.serif.com/" style="fill-rule:evenodd;clip-rule:evenodd;stroke-linejoin:round;stroke-miterlimit:2;">
    <g id="Plan-de-travail1" serif:id="Plan de travail1" transform="matrix(1,0,0,1,0.000329261,-1.91525)">
        <rect x="-0" y="1.915" width="320.512" height="512.008" style="fill:none;"/>
        <clipPath id="_clip1">
            <rect x="-0" y="1.915" width="320.512" height="512.008"/>
        </clipPath>
        <g clip-path="url(#_clip1)">
            <g transform="matrix(1,0,0,1,0.999671,0.915248)">
                <g transform="matrix(1,0,0,1,-239.458,1.92301)">
                    <path d="M496.1,24.24C501.2,7.093 518.6,-3.331 535.8,0.955C552.9,5.242 563.3,22.62 559,39.76L550.3,74.63C539.3,118.6 510.1,154.2 472,174.3L472,480C472,497.7 457.7,512 440,512C422.3,512 408,497.7 408,480L408,352L392,352L392,480C392,497.7 377.7,512 360,512C342.3,512 328,497.7 328,480L328,174.3C289.9,154.2 260.7,118.6 249.7,74.63L240.1,39.76C236.7,22.62 247.1,5.242 264.2,0.955C281.4,-3.331 298.8,7.093 303,24.24L311.8,59.1C321.9,99.59 358.3,127.1 400,127.1C441.7,127.1 478.1,99.59 488.2,59.1L496.1,24.24Z" style="fill:rgb(0,101,252);fill-rule:nonzero;"/>
                </g>
                <g transform="matrix(1,0,0,1,-239.458,1.92301)">
                    <path d="M352,47.1C352,21.49 373.5,-0.001 400,-0.001C426.5,-0.001 448,21.49 448,47.1C448,74.51 426.5,95.1 400,95.1C373.5,95.1 352,74.51 352,47.1Z" style="fill:rgb(0,101,252);fill-rule:nonzero;"/>
                </g>
            </g>
        </g>
    </g>
</svg>
